<?xml version="1.0" encoding="UTF-8"?>
<svg id="Layer_1" data-name="Layer 1" xmlns="http://www.w3.org/2000/svg" viewBox="0 0 1080 1080">
  <circle cx="513.07" cy="476.89" r="313.07" fill="none" stroke="red" stroke-miterlimit="10" stroke-width="29"/>
  <path d="M766.59,407.12c.1-6.17-3.67-14.2-10.86-13.47-3.56-.19-6,3.65-9.2,4.87-3.82,1.2-8.82,1.36-12.2,1.17-3.74.24-7.62,1.31-11.47,2.53-4.58.96-6.43,4.19-9.72,1.29-1.48-1-.87-2.46-.61-3.84,1.04-14.86-16.94-20.52-25.62-29.76-.98-1.78-2.99-5.43-4.21-7.63-1.11-1.9-1.16-2.21-1.75-4.2-1.32-4.88-4.63-9.88-8.83-12.7-3.25-3.93-1.82-11.21-2.99-16.15-.41-3.41-3.64-6.73-4.88-9.7-1.56-3.63-4.16-8.95-5.75-12.58-3.89-7.53-9.41-13.74-12.73-20.7-2.46-5.32-3.1-11.69-8.36-16.25-1.11-1.14-2.4-2.77-3.08-4.01-.5-.76-.26-1.58.06-2.34.44-5.75-5.95-12.02-9.1-16.29-2.64-2.87-5.27-5.86-9.39-5.32-5.08,1.77-9.25,4.41-16.12,3.84-10.31-.18-23.39-4.68-30.96-10.31-3.32-2.45-7.85-3.85-12.52-3.64-10.12.06-20.77,8.27-18.23,18.9.03.44-.17.55-.72.37-4.63-1.84-10.45-4.24-14.88-6.38-1.33-2.02-1.74-4.93-4.07-6.51-3.66-2.95-9.99-4.78-11.17-5.12-4.76-1.5-10.83-1.74-15.02-3.51-2.26-1.14-1.02-2.32.27-4.18,1.5-2.11,1.57-6.13.72-8.45-.33-1.23-1.26-2.12-1.2-3.03.42-1.54,2.07-3.54,2.05-5.5.7-5.87-5.72-9.44-10.79-7.9-5.85-1.29-13.74-.46-19.34-.75-4.26-.47-8.64,1.61-12.33,2.4-3.19-.69-8.14-2.28-11.6-1.47-12.99,1.64-25.51,9.53-38,13.53-1.66.46-3.62-1.16-6.12-.96-2.25-.13-5.43.69-6.74.43-1.41-.63-3.6-3.14-6.25-4.04-12.25-4.2-11.71,10.83-18.4,16.23-13.13,5.21-21.48,18.58-21.21,32.37.02,1.43-.37,2.49-1.56,3.81-4.41,4.98-11.01,5.19-16.4,9.39-6.03,4.83-11.77,12.76-15.41,20.39-1.28,3.62-1.27,7.34-4.74,9.49-2.1,1.72-4.25,4.87-5.37,7.79-.97,1.7.86,2.75-.47,4.24-7.04,7.93-12.03,17.52-3.68,26.83.07,2.36-.29,4.24.81,6.95,2.66,6.93-.17,13.45-2.45,19.93-2.95,4.47-6.91,8.33-6.6,13.2.31,1.41,4.3,15.99,6.63,21.21,1.51,2.24,1.29,4.94,4.14,5.81,3.84.81,5.2,5.13,7.87,7.37,1.17,1.46,2.78,2.5,4.11,3.68,1.78,3.14,4.05,7.52,5.22,10.56,6.14,9.54,20.9,21.97,27.31,27.59,4.77,4.07,9.6,8.01,16.18,8.67,5.83.84,11.98-3.29,16.96-4.2,3.13-.29,7.07-.59,10.12-.73,1.96.41,4.28,2.2,6.55,1.97,9.69-.76,22.84-5.43,31.64-10.19,3.52-2.16,10.31-2.12,14.21-1.17,1.55.18,1.49,1.09,1.8,2.36.44,1.07,1.84,1.83,2.21,2.84,1.33,4.5,3.36,7.82,8.5,9.13.36.15,1.07.45,1.43.6.98.8-.23,3.67.56,3.4,1.31-.29,8.49-3.16,9.95-3.45.9-.18,2.42-.36,3.82-.7,2.04-.54,3.11,1.21,4.29,2.48,2.55,2.76.25,5.89-.91,8.69-2.41,3.78-.58,10.17-1.73,13.97-.35.78-.85,2.19-1.37,2.52-.4.35-.85.51-1.26,1-2.51,3.92-1.48,8.9.6,12.89,5.57,10.06,13.28,15.68,18.77,24.08,1.14,1.78,1.68,4.08,2.78,6.52,1.33,2.28,1.77,4.02,1.84,6.62.64,4.6,4.33,8.14,5.79,12.24.2,1.3-1.29,2.72-1.63,4.23-1.56,4.73,2.11,9.12,3.49,13.68,1.07,4.11,3.02,6.32.02,9.17-1.73,1.65-3.34,4.07-4,6.52-3.68,12.21-8.94,24.05-8.29,36.89.32,12.03,11.46,23.75,15.35,35.11,4.36,11.91.32,15.45,3.23,28.19,1.71,9.08,4.77,18.36,10.64,25.44,3.78,3.93,5.85,6.78,8.4,13.43,1.7,4.43,3.27,9.3,3.56,12.77-1.29,8.26-2.89,20.34,7.44,23.27,2.67.94,7.46,2.78,9.6,3.54.92.38,1.19.42,1.08-.22-.09-.59.16-1.18,1.11-1.18,5.44-.17,12.96-2.37,16.99-4.62,4.51-1.53,9.28,1.25,13.94.24,3.98-.56,6.17-2.34,9.77-2.95,19.13-3.67,32.05-24.72,39.05-35.69,6.32-8.24,15.19-17.53,13.58-28.62,1.37-2.61,4.3-3.27,6.69-4.49,6.05-2.69,9.71-5.95,10.98-10.18.9-2.57-.02-5.15-.13-7.76.38-2.23,1.07-4.55,1.07-7.25.1-4.69-2.16-10.3-3.05-14.68-.23-.79-.32-1.23-.06-1.63,1.5-1.66,5.33-4.29,6.9-6.07,1.88-1.53,3.8-4.57,5.81-6.58,9.73-4.98,21.12-11.45,26.02-22.23,3.93-9.67-.23-19.16.85-29.33.23-6.06.78-13.26-3.7-17.94-1.26-1.18-2.35-1.89-2.68-3.28-1.73-5.23-1-10.25-.73-14.71-.27-3.64-2.73-9.24-1.73-12.41,2.96-12.96,12.57-23.57,20.43-33.9,8.35-9.73,17.67-17.6,26.83-26.5,9.77-9.29,15.41-20.6,20.22-31.61,2.89-7.28,6.25-13.63,10.19-20.2,1.1-1.81.59-3.93,1.53-5.72,2.29-2.45,3.89-5.52,5.12-8.73.51-1.02-2.03-1.9-2.52-2.65l-.19-.43v.06ZM757.32,415.61c-.17,2.76-.25,6.23-2.23,8.77-10.07,16.78-14.18,36.43-30.05,49.56-13.33,11.83-25.89,24.94-36.43,39.52-2.41,3.73-6.54,11.02-7.92,14.3-.43,1.04-1.25.94-2.05,1.31-3.27,4.37.5,15.28,1.09,19.56.19.88.3,1.22.23,1.75-1.12,6.08-.35,17.69,4.68,21.15,1.62,1.23,2.27,3.63,2.41,5.6.47,4.55-.4,10.54-.17,14.67.23,5.17,1.85,12.63.51,18.11-4.03,11.46-16.51,17.03-26.48,21.89.3,3.04-9.29,11-12.52,13.2-.87.57-1.67,1.2-2.19,2.19-1.51,3.27,2.88,10.24,2.26,14.14-.01,1-.1,1.79-.06,2.25-.07,1,.83-.15,1.56-.05,1.82,3.65-1.26,8.58-1.12,12.08.01.45.25.45.55.67,2.29,4.34-4.66,7.35-7.66,8.68-4.38,1.47-7.91,5.5-11.61,7.99-.87.83,1.09,2.12,1.43,3.48,2.23,9.48-8.48,17.39-12.95,25.02-7.76,12.31-19.19,29.05-34.4,31.51-4.17.77-7.8,3.84-13.22,2.54-2.78-.68-5.54-.7-8.45-.25-5.26.89-8.42,4.11-14.01,4.42-3.71.25-7.28,1.48-9.8-1.16-.75-.74-2.13-1.87-2.98-2.01-.98-.03-1.27,1.31-2.11.43-3.39-4.56-.2-11.24-.48-16.29-1.42-10.83-7.55-23.99-15.74-32.64-6.27-9.77-8.96-25.52-8.04-35.6.42-14.04-10.03-26.46-15.52-38-3.74-9.11-1.6-16.98.9-26.77,1.84-6,3.86-11.82,5.82-17.47,1.62-2.62,4.81-4.38,5.1-7.99.78-6.88-3.64-13.18-5.23-19.28-.03-1.41,1.27-2.02,1.84-3.71.4-1.07.44-2.34.24-3.47-1.59-7.76-10.72-13.32-2.91-17.6.04-.38-1.77-.46-2.58-.69-3.21-.71-3.37-4.76-4.62-7.26-4.31-9.32-13.6-16.11-19.08-24.87-1.44-2.15-2.87-5.54-1.91-7.65.29-.46.36.89.97-.09.86-1.25,2.13-4.45,2.98-6.36.39-.9.66-.48,1.41.02.62.39,1.24.41,1.11.21-.07-.28-1.48-.81-1.88-1.54l-.33-1.23c.45-.8.97-1.7,1.09-2.61-1.79-2.54-1.64-4.77-.2-7.59,1.14-2.6,2.69-5.48,2.64-8.26.09-1.91-1.35-3.91-1.83-5.87-.29-1.08,0-1.97-.6-2.31-.89-.5-2.11-.16-2.64-1.13-.65-.7-.47-1.65-2.24-2.96-.53-.2-1.08-.16-1.65-.51-.62-.47-1.19-1.12-1.59-1.1-.42-.04-.68.52-1.17,1.03-1.4,1.12-5.01,1.61-6.37,1.66-1.51-1.22-2.41-.47-4.4-.31-6.32.83-7.51-1.6-7.69-7.43-.31-.32-1.45-.02-1.83-.76-.68-1.57-1.1-3.3-2.8-4.31-6.34-3.81-16.21-3.52-22.81-.59-3.69,2.34-7.76,3.91-12.52,5.59-6.67,2.09-12.38,4.43-17.35,4.12-.93-.36-.92-2.35-1.71-2.83-4.05,1.05-10.75,1.38-14.99,1.73-4.38.4-8.54,3.17-12.65,4.01-2.69.74-6.36-.34-9.54-2.28-3.94-2.46-10.18-6.55-15.02-11.05-7.81-6.78-17.4-17.86-23.13-30.8-.91-1.66-.77-2.73-2.04-3.73-.77-.56-1.72-.49-2.24-.8-2.08-1.48-5.91-5.46-7.65-7.05-5.99-4.64-7.26-14.64-8.53-21.57-.14-5.38,6.98-9.42,7.31-14.45.98-4.68,3.44-9.64,2.83-14.42-.18-1.74-.75-4.69-1.26-6.74-.36-1.56-.84-1.81-.69-2.87.13-1.17.9-2.92.6-3.99-.39-1.61-2.17-4.09-3.31-5.04-1.19-.79-1.88-2.59-1.71-4.44.39-6.47,10.03-11.98,10.09-18.78-.19-.63-1.21.22-.69-.86,1.43-2.66,4.73-4.23,6.29-6.98,1.72-3.2,1.75-7.16,3.64-10.26,3.3-4.9,6.93-10.72,11.58-14.61,6.93-4.87,19.5-6.88,21.07-16.82-.04-8.2,2.43-17.55,8.93-23.31,3.98-3.36,9.96-4.51,12.96-8.99,2.53-2.86,3.72-7.78,6.39-11.71,2.85-2.25,7.23,5.22,10.28,4.44,2.61-.14,6.17-1.2,8.61-.38,3.6,4.87,25.39-9,40.3-12.37,4.3-.96,7.79-.98,10.5.47.89.4,1.96.57,2.91.64,3.72-.02,8.2-2.66,11.81-2.59,5.02.55,12.22-.64,17.54.45,1.7.25,1.74,1.21,2.03,1.63.29.37,1.98-.82,3.29-1.27,3.82-.6-.91,3.77-1.55,5.23-1.25,1.86-.17,3.38,1.16,4.61,4.29,3.39-.88,6.97-2.74,10.71-2.16,4.31-2.35,4.6,2.16,5.2,2.3.68,2.83,1.88,4.23,3.08,2.38.67,5.56,1.06,8.29,1.63,5.63.89,11.36,2.51,16.3,5.08.65.38,1.06.85,1.39,1.5.93,1.88,1.22,4.17,2.75,5.52,2.54,1.81,4.44,1.78,7.81,3.48,4.59,1.71,10.31,5.24,15.18,5.18,11.64-3.72-3.91-15.31,13.12-19.56,5.45-1.43,10.24.82,14.24,3.93,13.32,8.07,34.63,13.6,48.42,6.11.59-.38.72-.43,1.34,0,2.03,1.49,6.89,7.78,8.88,11.1.82,1.16.76,1.96.52,3.18-.36,1.88.43,3.86,1.34,5.59,2.51,5.01,6.35,6.28,8.14,11.5.81,2.13,1.46,4.47,2.27,6.55,3.74,7.61,14.75,25.64,20.95,37.22.95,1.58,2.5,4.93,2.72,5.77.8,2.51.37,9.02,1.32,12.29.37,6.5,6.21,8.73,9.02,13.44,3.26,5.92,2.95,13.41,7.04,18.97.67.91,1.05.82,1.05-.08-.02-.88-.02-.98.21-.53,5,6.27,35.08,19.43,20.98,28.92-.05.19-.15.58-.2.77,5.3,2.29,10.69,10.26,17.12,7.16,4.6-2.06,10.04-3.88,15.22-4.55,6.82.04,15.75.07,20.85-5.35,4.85-3.19,4.97,6.39,4.64,9.28.28.71,1.08,1.39.62,1.97-.42.6-1.65.48-2.15.99l-.75,1.51-.05.54-.04-.03Z" fill="#190c0b" stroke="#000" stroke-miterlimit="10" stroke-width="8"/>
  <g isolation="isolate">
    <text transform="translate(482.18 506.96)" fill="none" font-family="Poppins-Bold, Poppins" font-size="112.12" font-weight="700" isolation="isolate" stroke="#000" stroke-miterlimit="10" stroke-width="3"><tspan x="0" y="0">AI C</tspan></text>
  </g>
  <g>
    <rect x="603.07" y="194.26" width="12.86" height="492.09" fill="red" stroke="red" stroke-miterlimit="10" stroke-width="13"/>
    <rect x="516.5" y="323.3" width="186" height="12.86" fill="red" stroke="red" stroke-miterlimit="10" stroke-width="13"/>
  </g>
</svg>